<svg xmlns="http://www.w3.org/2000/svg" version="1.1" xmlns:xlink="http://www.w3.org/1999/xlink" xmlns:svgjs="http://svgjs.dev/svgjs" width="1500" height="234" viewBox="0 0 1500 234"><g transform="matrix(1,0,0,1,-0.9090909090909918,-0.34900877934711616)"><svg viewBox="0 0 396 62" data-background-color="#ffffff" preserveAspectRatio="xMidYMid meet" height="234" width="1500" xmlns="http://www.w3.org/2000/svg" xmlns:xlink="http://www.w3.org/1999/xlink"><g id="tight-bounds" transform="matrix(1,0,0,1,0.2400000000000091,0.09247241162188402)"><svg viewBox="0 0 395.52 61.81505517675625" height="61.81505517675625" width="395.52"><g><svg viewBox="0 0 470.39980530396497 73.51787499999999" height="61.81505517675625" width="395.52"><g><svg viewBox="0 0 470.39980530396497 73.51787499999999" height="73.51787499999999" width="470.39980530396497"><g id="textblocktransform"><svg viewBox="0 0 470.39980530396497 73.51787499999999" height="73.51787499999999" width="470.39980530396497" id="textblock"><g><svg viewBox="0 0 470.39980530396497 73.51787499999999" height="73.51787499999999" width="470.39980530396497"><g><svg><g></g><g></g></svg></g><g><svg><g></g><g><svg></svg></g></svg></g><g id="text-0"><svg viewBox="0 0 470.39980530396497 73.51787499999999" height="73.51787499999999" width="470.39980530396497"><g><svg xmlns="http://www.w3.org/2000/svg" xmlns:xlink="http://www.w3.org/1999/xlink" version="1.1" x="0" y="0" viewBox="5.356387831241043 1.3222235572460037 39.2878904755484 47.354776442753995" enable-background="new 0 0 50 50" xml:space="preserve" height="73.51787499999999" width="60.994105303964986" class="icon-cg-0" data-fill-palette-color="accent" id="cg-0"><g fill="#ff851b" data-fill-palette-color="accent"><path fill-rule="evenodd" clip-rule="evenodd" fill="#ff851b" d="M44.104 11.163c0.779-0.705 0.704-1.413-0.15-2.119-4.348 0.819-31.488 11.599-32.084 13.682C22.578 18.858 33.359 15.03 44.104 11.163z" data-fill-palette-color="accent"></path><path fill-rule="evenodd" clip-rule="evenodd" fill="#ff851b" d="M36.52 2.613c-0.484-3.271-4.054 0.521-6.617 2.082-2.642 2.043-4.833 3.531-7.547 5.578-2.566 1.968-13.312 9.478-13.906 11.783L36.52 2.613z" data-fill-palette-color="accent"></path><path fill-rule="evenodd" clip-rule="evenodd" fill="#ff851b" d="M18.671 26.926c2.752-1.076 2.381-4.869 7.548-2.936 0.483 0.781 0 1.45-0.632 2.229 3.235-1.261 5.245-2.86 7.66 1.303 1.896-0.631 5.726 0.93 6.023-0.074-1.488-0.816-3.05-1.486-5.354-1.486-0.744-0.707-1.523-1.376-2.305-2.083-1.19-0.372-2.416-0.335-3.641 0.111-1.268-0.818-1.936-1.747-4.092-1.747-2.12 0-2.791 0.929-4.017 1.747-3.271 0-3.568 0.036-5.986 2.229-1.561 0.447-3.159 0.855-4.721 1.303 0.073 0.223 0.111 0.447 0.186 0.631 1.747-0.258 3.495-0.52 5.242-0.779C15.214 24.995 20.048 23.582 18.671 26.926z" data-fill-palette-color="accent"></path><path fill-rule="evenodd" clip-rule="evenodd" fill="#ff851b" d="M5.363 28.861c-0.224 8.625 5.279 16.691 11.079 19.816h16.917c0.036-0.113 5.986-5.133 7.434-7.734 1.637-3.014 3.05-7.732 3.05-12.082H5.363z" data-fill-palette-color="accent"></path></g></svg></g><g transform="matrix(1,0,0,1,74.87980530396499,0.9146293474195915)"><svg width="395.52" viewBox="1.4499999999999997 -35.85 200.54000000000002 36.35" height="71.6886163051608" data-palette-color="#ff851b"><path d="M13.3-22.4L19.15-22.4Q19.15-21.4 19.05-20.38 18.95-19.35 18.65-18.75L18.65-18.75Q17.2-18.75 15.95-18.57 14.7-18.4 13.3-17.95L13.3-17.95 13.3-22.4ZM5.3-7.75L5.3-24Q5.3-28 6.9-30.63 8.5-33.25 11.2-34.52 13.9-35.8 17.3-35.8L17.3-35.8Q19.35-35.8 21.23-35.35 23.1-34.9 24.15-34.25L24.15-34.25Q23.9-32.8 23.85-30.9 23.8-29 23.9-27.65L23.9-27.65Q23-27.3 21.48-27.15 19.95-27 18.75-27.05L18.75-27.05Q18.75-29.45 18-30.88 17.25-32.3 15.95-32.3L15.95-32.3Q15.1-32.3 14.55-31.7 14-31.1 13.75-29.68 13.5-28.25 13.5-25.65L13.5-25.65 13.5-7.75 5.3-7.75ZM2.15-22.4L6.45-22.4 6.45-17.95Q4.95-18.5 3.65-18.7 2.35-18.9 1.45-18.9L1.45-18.9Q1.45-19.85 1.63-20.8 1.8-21.75 2.15-22.4L2.15-22.4ZM13.5-11.35L13.5-9.2Q13.5-7.05 14-5.83 14.5-4.6 15.63-4.03 16.75-3.45 18.7-3.3L18.7-3.3Q18.95-2.6 19.03-1.68 19.1-0.75 19.1 0.15L19.1 0.15Q18.2 0.1 16.8 0.08 15.4 0.05 13.85 0.03 12.3 0 10.8 0L10.8 0Q8.35 0 5.75 0.03 3.15 0.05 1.6 0.15L1.6 0.15Q1.6-1.05 1.65-1.88 1.7-2.7 1.9-3.3L1.9-3.3Q3.25-3.4 3.98-3.83 4.7-4.25 5-5.35 5.3-6.45 5.3-8.6L5.3-8.6 5.3-11.35 13.5-11.35ZM35.25 0.45L35.25 0.45Q31.05 0.45 28.17-0.98 25.3-2.4 23.85-5 22.4-7.6 22.4-11.1L22.4-11.1Q22.4-15.15 24.12-17.88 25.85-20.6 28.85-21.98 31.85-23.35 35.6-23.35L35.6-23.35Q39.9-23.35 42.77-21.85 45.65-20.35 47.1-17.75 48.55-15.15 48.55-11.75L48.55-11.75Q48.55-8 46.95-5.25 45.35-2.5 42.35-1.03 39.35 0.45 35.25 0.45ZM36.05-3.05L36.05-3.05Q38.1-3.05 39.15-5.15 40.2-7.25 40.2-10.35L40.2-10.35Q40.2-13.6 39.45-15.75 38.7-17.9 37.5-18.98 36.3-20.05 34.9-20.05L34.9-20.05Q32.75-20.05 31.75-17.95 30.75-15.85 30.75-12.8L30.75-12.8Q30.75-10.05 31.35-7.83 31.95-5.6 33.15-4.33 34.35-3.05 36.05-3.05ZM64.7 0.45L64.7 0.45Q60.5 0.45 57.62-0.98 54.75-2.4 53.3-5 51.85-7.6 51.85-11.1L51.85-11.1Q51.85-15.15 53.57-17.88 55.3-20.6 58.3-21.98 61.3-23.35 65.05-23.35L65.05-23.35Q69.35-23.35 72.22-21.85 75.1-20.35 76.55-17.75 78-15.15 78-11.75L78-11.75Q78-8 76.4-5.25 74.8-2.5 71.8-1.03 68.8 0.45 64.7 0.45ZM65.5-3.05L65.5-3.05Q67.55-3.05 68.6-5.15 69.65-7.25 69.65-10.35L69.65-10.35Q69.65-13.6 68.9-15.75 68.15-17.9 66.95-18.98 65.75-20.05 64.35-20.05L64.35-20.05Q62.2-20.05 61.2-17.95 60.2-15.85 60.2-12.8L60.2-12.8Q60.2-10.05 60.8-7.83 61.4-5.6 62.6-4.33 63.8-3.05 65.5-3.05ZM95.44-23.35L95.44-23.35Q96.49-23.35 97.42-23.2 98.34-23.05 99.34-22.8L99.34-22.8 99.34-17.8Q98.54-18.9 97.62-19.5 96.69-20.1 95.39-20.1L95.39-20.1Q94.49-20.1 93.49-19.75 92.49-19.4 91.62-18.45 90.74-17.5 90.19-15.73 89.64-13.95 89.64-11.15L89.64-11.15Q89.64-9.15 90.12-7.53 90.59-5.9 91.57-4.95 92.54-4 93.99-4L93.99-4Q95.19-4 96.29-4.78 97.39-5.55 98.14-7.33 98.89-9.1 98.89-12.05L98.89-12.05 101.04-7Q100.14-4.9 99.37-3.73 98.59-2.55 97.79-1.95L97.79-1.95Q97.24-1.4 96.27-0.85 95.29-0.3 94.02 0.08 92.74 0.45 91.29 0.45L91.29 0.45Q88.44 0.45 86.17-0.63 83.89-1.7 82.59-4 81.29-6.3 81.29-9.9L81.29-9.9Q81.29-13.9 83.04-16.93 84.79-19.95 87.99-21.65 91.19-23.35 95.44-23.35ZM100.49-6.75L107.09-9.05Q107.09-7.3 107.29-6.38 107.49-5.45 108.12-5.13 108.74-4.8 109.99-4.75L109.99-4.75Q110.14-3.8 110.02-2.9 109.89-2 109.49-1.2L109.49-1.2Q107.44-1.15 105.32-0.75 103.19-0.35 101.34 0.45L101.34 0.45Q100.39 0.1 99.99-0.58 99.59-1.25 99.59-2.4L99.59-2.4Q99.59-3.4 99.84-4.48 100.09-5.55 100.49-6.75L100.49-6.75ZM98.89-28.45L107.09-28.45 107.09-6.55 98.89-6.55 98.89-28.45ZM105.49-35.85L105.49-35.85Q106.24-35.55 106.67-34.85 107.09-34.15 107.09-32.95L107.09-32.95 107.09-26.85 98.89-26.85 98.89-27.4Q98.89-28.55 98.59-29.3 98.29-30.05 97.49-30.43 96.69-30.8 95.14-30.9L95.14-30.9Q95.14-31.75 95.27-32.63 95.39-33.5 95.74-34.2L95.74-34.2Q97.79-34.2 99.74-34.45 101.69-34.7 103.22-35.08 104.74-35.45 105.49-35.85ZM139.09-7.45L136.19-9.25Q137.64-11.6 138.39-13.23 139.14-14.85 139.49-16.3L139.49-16.3Q139.94-18.1 139.29-18.88 138.64-19.65 136.59-20.05L136.59-20.05Q136.29-20.85 136.19-21.55 136.09-22.25 136.09-23.05L136.09-23.05Q137.29-22.95 138.99-22.93 140.69-22.9 141.94-22.9L141.94-22.9Q143.19-22.9 144.57-22.93 145.94-22.95 147.09-23.05L147.09-23.05Q147.09-22.3 147.04-21.58 146.99-20.85 146.74-20.05L146.74-20.05Q145.54-19.7 144.89-19.25 144.24-18.8 143.87-18.07 143.49-17.35 143.09-16.25L143.09-16.25Q142.54-14.65 142.04-13.4 141.54-12.15 140.87-10.78 140.19-9.4 139.09-7.45L139.09-7.45ZM142.04-7.2L142.04-7.2Q143.09-6.15 143.92-5.6 144.74-5.05 145.62-4.83 146.49-4.6 147.74-4.55L147.74-4.55Q147.74-3.65 147.59-2.5 147.44-1.35 147.14-0.5L147.14-0.5Q145.89-0.5 144.27-0.38 142.64-0.25 140.99-0.05 139.34 0.15 137.99 0.45L137.99 0.45Q134.64-4 131.34-7.85 128.04-11.7 125.09-15.35L125.09-15.35Q122.79-18.3 121.44-20.48 120.09-22.65 119.52-24.43 118.94-26.2 118.94-28.05L118.94-28.05Q118.94-30.25 119.99-32.02 121.04-33.8 123.52-34.83 125.99-35.85 130.19-35.85L130.19-35.85Q132.84-35.85 135.02-35.45 137.19-35.05 139.34-34.05L139.34-34.05Q138.99-32.65 138.92-30.75 138.84-28.85 138.94-26.85L138.94-26.85Q137.89-26.55 136.64-26.43 135.39-26.3 134.04-26.3L134.04-26.3Q133.84-29.3 132.89-30.85 131.94-32.4 129.89-32.4L129.89-32.4Q128.59-32.4 127.79-31.63 126.99-30.85 126.99-29.05L126.99-29.05Q126.99-27.85 127.42-26.55 127.84-25.25 128.87-23.63 129.89-22 131.69-19.55L131.69-19.55Q132.49-18.55 133.59-17.13 134.69-15.7 136.07-14.05 137.44-12.4 138.97-10.65 140.49-8.9 142.04-7.2ZM127.99-3.5L127.99-3.5Q129.74-3.5 131.17-4.33 132.59-5.15 134.04-7L134.04-7 136.74-4.65Q134.44-2 131.92-0.75 129.39 0.5 125.59 0.5L125.59 0.5Q122.54 0.5 120.27-0.25 117.99-1 116.54-2.4 115.09-3.8 114.39-5.68 113.69-7.55 113.69-9.85L113.69-9.85Q113.69-13.9 115.87-16.53 118.04-19.15 121.84-20.9L121.84-20.9 124.19-17.9Q123.19-17 122.54-15.58 121.89-14.15 121.89-11.7L121.89-11.7Q121.89-8.8 122.74-7 123.59-5.2 124.99-4.35 126.39-3.5 127.99-3.5ZM173.14-2.55L173.14-2.55Q171.84-1.1 169.61-0.33 167.39 0.45 164.59 0.45L164.59 0.45Q160.89 0.45 158.06-0.85 155.24-2.15 153.66-4.75 152.09-7.35 152.09-11.35L152.09-11.35Q152.09-14.35 153.44-17.1 154.79-19.85 157.46-21.6 160.14-23.35 164.14-23.35L164.14-23.35Q166.99-23.35 169.06-22.83 171.14-22.3 172.79-21.3L172.79-21.3Q172.49-19.9 172.36-18.4 172.24-16.9 172.24-14.95L172.24-14.95Q171.29-14.55 170.06-14.38 168.84-14.2 167.74-14.2L167.74-14.2Q167.64-17.1 166.69-18.57 165.74-20.05 164.24-20.05L164.24-20.05Q162.29-20.05 161.26-17.82 160.24-15.6 160.24-12.05L160.24-12.05Q160.24-10 160.91-8.08 161.59-6.15 163.04-4.93 164.49-3.7 166.84-3.7L166.84-3.7Q168.44-3.7 169.74-4.13 171.04-4.55 171.99-5.3L171.99-5.3Q172.49-4.85 172.81-4.13 173.14-3.4 173.14-2.55ZM188.69 0.45L188.69 0.45Q184.49 0.45 181.61-0.98 178.74-2.4 177.29-5 175.84-7.6 175.84-11.1L175.84-11.1Q175.84-15.15 177.56-17.88 179.29-20.6 182.29-21.98 185.29-23.35 189.04-23.35L189.04-23.35Q193.34-23.35 196.21-21.85 199.09-20.35 200.54-17.75 201.99-15.15 201.99-11.75L201.99-11.75Q201.99-8 200.39-5.25 198.79-2.5 195.79-1.03 192.79 0.45 188.69 0.45ZM189.49-3.05L189.49-3.05Q191.54-3.05 192.59-5.15 193.64-7.25 193.64-10.35L193.64-10.35Q193.64-13.6 192.89-15.75 192.14-17.9 190.94-18.98 189.74-20.05 188.34-20.05L188.34-20.05Q186.19-20.05 185.19-17.95 184.19-15.85 184.19-12.8L184.19-12.8Q184.19-10.05 184.79-7.83 185.39-5.6 186.59-4.33 187.79-3.05 189.49-3.05Z" opacity="1" transform="matrix(1,0,0,1,0,0)" fill="#ff851b" class="wordmark-text-0" data-fill-palette-color="primary"></path></svg></g></svg></g></svg></g></svg></g></svg></g></svg></g><defs></defs></svg><rect width="395.52" height="61.81505517675625" fill="none" stroke="none" visibility="hidden"></rect></g></svg></g></svg>